<svg xmlns="http://www.w3.org/2000/svg" xmlns:xlink="http://www.w3.org/1999/xlink" xmlns:lucid="lucid" width="650.73" height="422.79"><g transform="translate(153.81132109100895 -124.06701368606699)" lucid:page-tab-id="0_0"><path d="M100.14 303.1a6 6 0 0 1 6-6h111.9a6 6 0 0 1 6 6v51.18a6 6 0 0 1-6 6h-111.9a6 6 0 0 1-6-6z" stroke="#000" stroke-opacity="0" stroke-width="3" fill="#ced4db"/><use xlink:href="#a" transform="matrix(1,0,0,1,112.13687991346274,309.1099767068917) translate(20.4320987654321 25.27777777777778)"/><path d="M-132.3 151.57a6 6 0 0 1 6-6h148a6 6 0 0 1 6 6v108a6 6 0 0 1-6 6h-148a6 6 0 0 1-6-6z" stroke="#000" stroke-opacity="0" stroke-width="3" fill="#fff7a1"/><use xlink:href="#b" transform="matrix(1,0,0,1,-120.31132109100895,157.56701368606699) translate(17.125925925925927 53.06666666666667)"/><path d="M-132.3 411.36a6 6 0 0 1 6-6h148a6 6 0 0 1 6 6v108a6 6 0 0 1-6 6h-148a6 6 0 0 1-6-6z" stroke="#000" stroke-opacity="0" stroke-width="3" fill="#b8fded"/><use xlink:href="#c" transform="matrix(1,0,0,1,-120.31132109100895,417.3549502931951) translate(5.837037037037035 53.06666666666667)"/><path d="M315.42 151.57a6 6 0 0 1 6-6h148a6 6 0 0 1 6 6v108a6 6 0 0 1-6 6h-148a6 6 0 0 1-6-6z" stroke="#000" stroke-opacity="0" stroke-width="3" fill="#dbd3b6"/><use xlink:href="#d" transform="matrix(1,0,0,1,327.42107956470363,157.56701368606699) translate(33.185185185185176 53.06666666666667)"/><path d="M322.2 411.36a6 6 0 0 1 6-6H469.4a6 6 0 0 1 6 6v108a6 6 0 0 1-6 6H328.2a6 6 0 0 1-6-6z" stroke="#000" stroke-opacity="0" stroke-width="3" fill="#a7a6ff"/><use xlink:href="#e" transform="matrix(1,0,0,1,334.18639041384756,417.3549502931951) translate(31.340740740740735 53.06666666666667)"/><path d="M225.53 328.74l.66.05 1.03.1 1.02.15 1 .2 1 .22 1 .28 1 .32.97.37 1 .42 1 .47 1.02.53 1.04.6 1.06.67 1.08.76 1.12.84 1.17.96 1.22 1.1 1.27 1.24 1.32 1.42 1.43 1.65 1.52 1.94 1.66 2.28 1.8 2.73 2.03 3.35 2.3 4.2 2.76 5.55 3.5 7.9 5.7 14.54L283.7 425l3.5 7.9 2.74 5.54 2.3 4.2 2.04 3.36 1.8 2.73 1.66 2.28 1.53 1.94 1.42 1.65 1.33 1.42 1.27 1.24 1.2 1.1 1.17.95 1.12.86 1.08.76 1.06.67 1.03.6 1.02.52.44.2" stroke="#3a414a" stroke-width="3" stroke-linejoin="round" fill="none"/><path d="M225.6 327.23l-.06 3-1.5-.03v-3z" stroke="#3a414a" stroke-width=".05" fill="#3a414a"/><path d="M319.37 464.5L304.8 468l4.46-14.6z" stroke="#3a414a" stroke-width="3" fill="#3a414a"/><path d="M98.64 328.62l-.45-.05-.64-.1-.62-.1-.62-.15-.62-.18-.62-.2-.63-.23-.62-.25-.64-.3-.66-.34-.66-.38-.68-.43-.7-.5-.72-.54-.76-.63-.78-.7-.83-.8-.86-.94-.93-1.1-.98-1.25-1.08-1.48-1.17-1.77-1.3-2.14-1.45-2.64-1.66-3.36-1.96-4.42-2.45-6.2-3.5-10.1-15.77-50.5-2.45-6.22-1.96-4.42-1.67-3.36-1.45-2.64-1.3-2.14-1.17-1.77-1.07-1.5-.98-1.25-.93-1.07-.9-.93-.8-.8-.8-.72-.75-.62-.13-.1" stroke="#3a414a" stroke-width="3" stroke-linejoin="round" fill="none"/><path d="M100.14 327.2v3l-1.57-.04.06-3z" stroke="#3a414a" stroke-width=".05" fill="#3a414a"/><path d="M30.34 206.86l14.95-1.22-6.7 13.73z" stroke="#3a414a" stroke-width="3" fill="#3a414a"/><path d="M98.64 328.78l-.27.03-.57.1-.56.1-.57.13-.56.16-.56.17-.57.22-.58.23-.6.28-.6.32-.6.35-.64.4-.65.45-.66.5-.7.6-.74.66-.77.75-.82.87-.85 1-.94 1.2-1 1.38-1.1 1.65-1.2 2-1.36 2.47-1.53 3.1-1.78 4.03-2.16 5.48-2.8 8.1-4.54 15.2-13.35 47.85-2.8 8.1L50 442.1l-1.78 4.03-1.54 3.1-1.35 2.46-1.2 2.02-1.1 1.65-1.02 1.4-.92 1.17-.87 1-.8.88-.78.75-.73.67-.12.08" stroke="#3a414a" stroke-width="3" stroke-linejoin="round" fill="none"/><path d="M100.14 330.2l-1.5.03-.07-3 1.57-.04z" stroke="#3a414a" stroke-width=".05" fill="#3a414a"/><path d="M30.3 463.98l7.85-12.78 7.13 13.5z" stroke="#3a414a" stroke-width="3" fill="#3a414a"/><path d="M225.53 328.64l.57-.03 1-.1.98-.14.97-.2.95-.2.95-.27.95-.32.94-.35.95-.4.95-.45.97-.5 1-.58 1-.64 1.03-.72 1.06-.8 1.12-.92 1.15-1.04 1.2-1.18 1.28-1.36 1.35-1.57 1.45-1.83 1.58-2.17 1.72-2.6 1.94-3.2 2.2-4.06 2.7-5.38 3.5-7.95 7.66-19.68 9.8-25.4 3.5-7.95 2.68-5.4 2.22-4.05 1.94-3.2 1.73-2.6 1.57-2.18 1.45-1.83 1.35-1.58 1.28-1.36 1.2-1.18 1.15-1.03 1.1-.92 1.07-.8 1.04-.73 1-.64 1-.57.96-.5" stroke="#3a414a" stroke-width="3" stroke-linejoin="round" fill="none"/><path d="M225.6 330.16l-1.57.04v-3l1.5-.04z" stroke="#3a414a" stroke-width=".05" fill="#3a414a"/><path d="M312.6 206.47l-9.96 11.2-4.65-14.54z" stroke="#3a414a" stroke-width="3" fill="#3a414a"/><defs><path fill="#333" d="M33 0v-248h34V0H33" id="f"/><path fill="#333" d="M59-47c-2 24 18 29 38 22v24C64 9 27 4 27-40v-127H5v-23h24l9-43h21v43h35v23H59v120" id="g"/><path fill="#333" d="M141-36C126-15 110 5 73 4 37 3 15-17 15-53c-1-64 63-63 125-63 3-35-9-54-41-54-24 1-41 7-42 31l-33-3c5-37 33-52 76-52 45 0 72 20 72 64v82c-1 20 7 32 28 27v20c-31 9-61-2-59-35zM48-53c0 20 12 33 32 33 41-3 63-29 60-74-43 2-92-5-92 41" id="h"/><path fill="#333" d="M24 0v-261h32V0H24" id="i"/><path fill="#333" d="M24-231v-30h32v30H24zM24 0v-190h32V0H24" id="j"/><path fill="#333" d="M117-194c89-4 53 116 60 194h-32v-121c0-31-8-49-39-48C34-167 62-67 57 0H25l-1-190h30c1 10-1 24 2 32 11-22 29-35 61-36" id="k"/><g id="a"><use transform="matrix(0.06172839506172839,0,0,0.06172839506172839,0,0)" xlink:href="#f"/><use transform="matrix(0.06172839506172839,0,0,0.06172839506172839,6.172839506172839,0)" xlink:href="#g"/><use transform="matrix(0.06172839506172839,0,0,0.06172839506172839,12.345679012345679,0)" xlink:href="#h"/><use transform="matrix(0.06172839506172839,0,0,0.06172839506172839,24.691358024691358,0)" xlink:href="#i"/><use transform="matrix(0.06172839506172839,0,0,0.06172839506172839,29.5679012345679,0)" xlink:href="#j"/><use transform="matrix(0.06172839506172839,0,0,0.06172839506172839,34.44444444444444,0)" xlink:href="#h"/><use transform="matrix(0.06172839506172839,0,0,0.06172839506172839,46.79012345679012,0)" xlink:href="#k"/></g><path d="M190 0L58-211 59 0H30v-248h39L202-35l-2-213h31V0h-41" id="l"/><path d="M100-194c63 0 86 42 84 106H49c0 40 14 67 53 68 26 1 43-12 49-29l28 8c-11 28-37 45-77 45C44 4 14-33 15-96c1-61 26-98 85-98zm52 81c6-60-76-77-97-28-3 7-6 17-6 28h103" id="m"/><path d="M141-36C126-15 110 5 73 4 37 3 15-17 15-53c-1-64 63-63 125-63 3-35-9-54-41-54-24 1-41 7-42 31l-33-3c5-37 33-52 76-52 45 0 72 20 72 64v82c-1 20 7 32 28 27v20c-31 9-61-2-59-35zM48-53c0 20 12 33 32 33 41-3 63-29 60-74-43 2-92-5-92 41" id="n"/><path d="M115-194c55 1 70 41 70 98S169 2 115 4C84 4 66-9 55-30l1 105H24l-1-265h31l2 30c10-21 28-34 59-34zm-8 174c40 0 45-34 45-75s-6-73-45-74c-42 0-51 32-51 76 0 43 10 73 51 73" id="o"/><path d="M100-194c62-1 85 37 85 99 1 63-27 99-86 99S16-35 15-95c0-66 28-99 85-99zM99-20c44 1 53-31 53-75 0-43-8-75-51-75s-53 32-53 75 10 74 51 75" id="p"/><path d="M24 0v-261h32V0H24" id="q"/><path d="M24-231v-30h32v30H24zM24 0v-190h32V0H24" id="r"/><path d="M59-47c-2 24 18 29 38 22v24C64 9 27 4 27-40v-127H5v-23h24l9-43h21v43h35v23H59v120" id="s"/><path d="M117-194c89-4 53 116 60 194h-32v-121c0-31-8-49-39-48C34-167 62-67 57 0H25l-1-190h30c1 10-1 24 2 32 11-22 29-35 61-36" id="t"/><g id="b"><use transform="matrix(0.05925925925925927,0,0,0.05925925925925927,0,0)" xlink:href="#l"/><use transform="matrix(0.05925925925925927,0,0,0.05925925925925927,15.34814814814815,0)" xlink:href="#m"/><use transform="matrix(0.05925925925925927,0,0,0.05925925925925927,27.200000000000003,0)" xlink:href="#n"/><use transform="matrix(0.05925925925925927,0,0,0.05925925925925927,39.05185185185186,0)" xlink:href="#o"/><use transform="matrix(0.05925925925925927,0,0,0.05925925925925927,50.90370370370371,0)" xlink:href="#p"/><use transform="matrix(0.05925925925925927,0,0,0.05925925925925927,62.75555555555557,0)" xlink:href="#q"/><use transform="matrix(0.05925925925925927,0,0,0.05925925925925927,67.43703703703704,0)" xlink:href="#r"/><use transform="matrix(0.05925925925925927,0,0,0.05925925925925927,72.11851851851853,0)" xlink:href="#s"/><use transform="matrix(0.05925925925925927,0,0,0.05925925925925927,78.04444444444445,0)" xlink:href="#n"/><use transform="matrix(0.05925925925925927,0,0,0.05925925925925927,89.8962962962963,0)" xlink:href="#t"/></g><path d="M30-248c87 1 191-15 191 75 0 78-77 80-158 76V0H30v-248zm33 125c57 0 124 11 124-50 0-59-68-47-124-48v98" id="u"/><path d="M85-194c31 0 48 13 60 33l-1-100h32l1 261h-30c-2-10 0-23-3-31C134-8 116 4 85 4 32 4 16-35 15-94c0-66 23-100 70-100zm9 24c-40 0-46 34-46 75 0 40 6 74 45 74 42 0 51-32 51-76 0-42-9-74-50-73" id="v"/><path d="M210-169c-67 3-38 105-44 169h-31v-121c0-29-5-50-35-48C34-165 62-65 56 0H25l-1-190h30c1 10-1 24 2 32 10-44 99-50 107 0 11-21 27-35 58-36 85-2 47 119 55 194h-31v-121c0-29-5-49-35-48" id="w"/><path d="M135-143c-3-34-86-38-87 0 15 53 115 12 119 90S17 21 10-45l28-5c4 36 97 45 98 0-10-56-113-15-118-90-4-57 82-63 122-42 12 7 21 19 24 35" id="x"/><g id="c"><use transform="matrix(0.05925925925925927,0,0,0.05925925925925927,0,0)" xlink:href="#u"/><use transform="matrix(0.05925925925925927,0,0,0.05925925925925927,14.222222222222225,0)" xlink:href="#r"/><use transform="matrix(0.05925925925925927,0,0,0.05925925925925927,18.903703703703705,0)" xlink:href="#m"/><use transform="matrix(0.05925925925925927,0,0,0.05925925925925927,30.75555555555556,0)" xlink:href="#v"/><use transform="matrix(0.05925925925925927,0,0,0.05925925925925927,42.607407407407415,0)" xlink:href="#w"/><use transform="matrix(0.05925925925925927,0,0,0.05925925925925927,60.32592592592594,0)" xlink:href="#p"/><use transform="matrix(0.05925925925925927,0,0,0.05925925925925927,72.17777777777779,0)" xlink:href="#t"/><use transform="matrix(0.05925925925925927,0,0,0.05925925925925927,84.02962962962964,0)" xlink:href="#s"/><use transform="matrix(0.05925925925925927,0,0,0.05925925925925927,89.95555555555556,0)" xlink:href="#m"/><use transform="matrix(0.05925925925925927,0,0,0.05925925925925927,101.80740740740741,0)" xlink:href="#x"/><use transform="matrix(0.05925925925925927,0,0,0.05925925925925927,112.47407407407408,0)" xlink:href="#m"/></g><path d="M63-220v92h138v28H63V0H30v-248h175v28H63" id="y"/><path d="M114-163C36-179 61-72 57 0H25l-1-190h30c1 12-1 29 2 39 6-27 23-49 58-41v29" id="z"/><path d="M84 4C-5 8 30-112 23-190h32v120c0 31 7 50 39 49 72-2 45-101 50-169h31l1 190h-30c-1-10 1-25-2-33-11 22-28 36-60 37" id="A"/><g id="d"><use transform="matrix(0.05925925925925927,0,0,0.05925925925925927,0,0)" xlink:href="#y"/><use transform="matrix(0.05925925925925927,0,0,0.05925925925925927,12.97777777777778,0)" xlink:href="#z"/><use transform="matrix(0.05925925925925927,0,0,0.05925925925925927,20.029629629629632,0)" xlink:href="#r"/><use transform="matrix(0.05925925925925927,0,0,0.05925925925925927,24.711111111111116,0)" xlink:href="#A"/><use transform="matrix(0.05925925925925927,0,0,0.05925925925925927,36.56296296296297,0)" xlink:href="#q"/><use transform="matrix(0.05925925925925927,0,0,0.05925925925925927,41.244444444444454,0)" xlink:href="#r"/><use transform="matrix(0.05925925925925927,0,0,0.05925925925925927,45.92592592592594,0)" xlink:href="#n"/><use transform="matrix(0.05925925925925927,0,0,0.05925925925925927,57.77777777777779,0)" xlink:href="#t"/></g><path d="M185-189c-5-48-123-54-124 2 14 75 158 14 163 119 3 78-121 87-175 55-17-10-28-26-33-46l33-7c5 56 141 63 141-1 0-78-155-14-162-118-5-82 145-84 179-34 5 7 8 16 11 25" id="B"/><path d="M96-169c-40 0-48 33-48 73s9 75 48 75c24 0 41-14 43-38l32 2c-6 37-31 61-74 61-59 0-76-41-82-99-10-93 101-131 147-64 4 7 5 14 7 22l-32 3c-4-21-16-35-41-35" id="C"/><g id="e"><use transform="matrix(0.05925925925925927,0,0,0.05925925925925927,0,0)" xlink:href="#B"/><use transform="matrix(0.05925925925925927,0,0,0.05925925925925927,14.222222222222225,0)" xlink:href="#r"/><use transform="matrix(0.05925925925925927,0,0,0.05925925925925927,18.903703703703705,0)" xlink:href="#C"/><use transform="matrix(0.05925925925925927,0,0,0.05925925925925927,29.570370370370373,0)" xlink:href="#r"/><use transform="matrix(0.05925925925925927,0,0,0.05925925925925927,34.25185185185185,0)" xlink:href="#q"/><use transform="matrix(0.05925925925925927,0,0,0.05925925925925927,38.93333333333334,0)" xlink:href="#r"/><use transform="matrix(0.05925925925925927,0,0,0.05925925925925927,43.61481481481482,0)" xlink:href="#n"/><use transform="matrix(0.05925925925925927,0,0,0.05925925925925927,55.466666666666676,0)" xlink:href="#t"/></g></defs></g></svg>